<!DOCTYPE svg PUBLIC "-//W3C//DTD SVG 1.1//EN" "http://www.w3.org/Graphics/SVG/1.1/DTD/svg11.dtd">
<!-- Uploaded to: SVG Repo, www.svgrepo.com, Transformed by: SVG Repo Mixer Tools -->
<svg width="800px" height="800px" viewBox="-2.4 -2.4 28.80 28.80" fill="none" xmlns="http://www.w3.org/2000/svg" stroke="#000000" stroke-width="0.00024000000000000003" transform="matrix(1, 0, 0, 1, 0, 0)">
<g id="SVGRepo_bgCarrier" stroke-width="0"/>
<g id="SVGRepo_tracerCarrier" stroke-linecap="round" stroke-linejoin="round" stroke="#CCCCCC" stroke-width="0.144"/>
<g id="SVGRepo_iconCarrier">
<path d="M7 4a2 2 0 0 1 2-2h6a2 2 0 0 1 2 2v2h4a1 1 0 1 1 0 2h-1.069l-.867 12.142A2 2 0 0 1 17.069 22H6.93a2 2 0 0 1-1.995-1.858L4.07 8H3a1 1 0 0 1 0-2h4V4zm2 2h6V4H9v2zM6.074 8l.857 12H17.07l.857-12H6.074zM10 10a1 1 0 0 1 1 1v6a1 1 0 1 1-2 0v-6a1 1 0 0 1 1-1zm4 0a1 1 0 0 1 1 1v6a1 1 0 1 1-2 0v-6a1 1 0 0 1 1-1z" fill="#0D0D0D"/>
</g>
</svg>